<?xml version="1.0" encoding="utf-8"?><!-- Uploaded to: SVG Repo, www.svgrepo.com, Generator: SVG Repo Mixer Tools -->
<svg width="800px" height="800px" viewBox="0 0 320 320" fill="none" xmlns="http://www.w3.org/2000/svg">
<path fill-rule="evenodd" clip-rule="evenodd" d="M39.1573 111C33.0971 123 26.51 152.249 35.1574 176.5C36.7187 180.879 38.6013 184.868 40.7163 188.524C44.7166 173.028 49.566 156.602 54.5 145.5C58.973 135.436 101.727 119.4 105.267 118.086C105.437 118.023 105.594 118.018 105.773 118.053L126.5 122.039C126.5 122.039 136.768 114.666 141.348 113.052C141.451 113.016 141.548 113 141.658 113.002C143.414 113.024 159.634 113.334 179.947 117.163C201.468 121.221 226.063 127.007 238 130.5C260 136.938 264 196.5 235.5 191.25V238.828C235.5 239.235 235.254 239.601 234.878 239.754L178.992 262.555C179.753 262.724 180.476 262.872 181.157 263C205.158 267.5 234.723 265.5 259.657 243C277.219 227.152 286.323 213.585 288.157 190C290.239 163.225 279.67 138.5 269.657 119C255.838 92.0876 233.657 78.0306 214.657 69.5C195.657 60.9694 165.157 55 137.157 55C109.157 55 84.6572 66.5001 70.1573 75.5C55.6574 84.4999 45.2174 99.0001 39.1573 111Z" fill="#B2AB73"/>
<path d="M173 265L234.878 239.754C235.254 239.601 235.5 239.235 235.5 238.828V191.25M173 265C175 244.5 180.099 185.033 191.5 174C207 159 235.5 143 235.5 143M173 265C133.951 268.16 79.5108 255.618 31.6724 231.342C31.2741 231.14 31.057 230.711 31.1448 230.273C32.508 223.475 43.2857 170.732 54.5 145.5C58.973 135.436 101.727 119.4 105.267 118.086C105.437 118.023 105.594 118.018 105.773 118.053L126.5 122.039M235.5 143L213.5 138.769M235.5 143V191.25M126.5 122.039C126.5 122.039 136.768 114.666 141.348 113.052C141.451 113.016 141.548 113 141.658 113.002C143.414 113.024 159.634 113.334 179.947 117.163C201.468 121.221 226.063 127.007 238 130.5M126.5 122.039L213.5 138.769M126.5 122.039C126.5 122.039 113.106 126.325 99.6385 133.63M213.5 138.769C213.5 138.769 181.334 152.708 168 169.5C166.143 171.839 164.444 174.923 162.895 178.5C157.449 191.079 153.863 209.748 151.784 223.5M213.5 138.769C219.385 130.687 223.691 127.483 238 130.5M238 130.5C260 136.938 264 196.5 235.5 191.25M168 241.5C168.791 244.564 168.602 246.019 168 248.5M155.5 256.5C157.3 255.829 158.84 255.782 162.895 256.5M219 220.5C218.922 222.52 218.91 223.549 219 225M226 214C225.876 215.757 225.859 216.742 226 218.5M226 227C226.253 229.431 226.194 230.318 226 231M44 214.5C43.3935 215.589 42.9423 217.071 42 221M47.5 225C46.8247 227.7 46.3733 228.548 45.5 229.5M90 208.5C112.316 215.524 125.566 218.987 151.784 223.5M90 208.5C78.8134 210.691 73.2621 212.721 64.8741 218.082M90 208.5C93.5998 170.977 96.2553 147.922 99.6385 133.63M151.784 223.5C150.558 231.612 149.856 238.012 149.605 240.442C149.546 241.016 149.006 241.423 148.437 241.333C108.732 235.069 89.8182 229.633 64.8741 218.082M64.8741 218.082C63.9734 217.665 63.0648 217.24 62.1471 216.806C61.76 216.624 61.5312 216.231 61.5826 215.806C62.349 209.47 68.4054 161.665 78 150C83.2486 143.619 91.457 138.067 99.6385 133.63M223.859 183.746L199.859 192.977C199.204 193.229 198.5 192.746 198.5 192.044V186.151C198.5 185.755 198.733 185.397 199.095 185.236L223.095 174.621C223.757 174.329 224.5 174.813 224.5 175.536V182.813C224.5 183.227 224.245 183.598 223.859 183.746Z" stroke="#000000" stroke-width="5" stroke-linecap="round"/>
</svg>