<?xml version="1.0" encoding="utf-8"?><!-- Uploaded to: SVG Repo, www.svgrepo.com, Generator: SVG Repo Mixer Tools -->
<svg width="800px" height="800px" viewBox="0 0 320 320" fill="none" xmlns="http://www.w3.org/2000/svg">
<path fill-rule="evenodd" clip-rule="evenodd" d="M39.1573 96C33.0971 108 26.51 137.249 35.1574 161.5C36.8506 166.248 38.9216 170.539 41.2572 174.444C45.1498 159.572 49.7863 144.106 54.5 133.5C58.973 123.436 101.727 107.4 105.267 106.086C105.437 106.023 105.594 106.018 105.773 106.053L126.5 110.039C126.5 110.039 137 102.5 141.5 101C143.869 100.211 149.69 100.503 157.435 101.486C160.44 92.9176 161.616 85.1074 160 80.5002C157.023 72.0129 156.208 74.7903 154.895 79.2654C154.12 81.9084 153.171 85.1437 151.5 87.0002C146.861 92.1541 139.5 91.0002 136.5 84.0002C133.857 77.8324 139 69.489 140 68.0001C143.694 62.5 153.536 59.93 163.5 63.0001C175.478 66.6906 179.934 77.5121 181 90.0002C181.462 95.4118 181.035 100.466 179.947 105.164C201.468 109.221 226.063 115.008 238 118.5C260 124.938 264 184.5 235.5 179.25V226.828C235.5 227.235 235.254 227.601 234.878 227.754L184.026 248.502C207.485 252.31 235.708 249.612 259.657 228C277.219 212.152 286.323 198.585 288.157 175C290.239 148.225 279.67 123.5 269.657 104C255.838 77.0876 233.657 63.0306 214.657 54.5C195.657 45.9694 165.157 40 137.157 40C109.157 40 84.6572 51.5001 70.1573 60.5C55.6574 69.4999 45.2174 84.0001 39.1573 96Z" fill="#B2AB73"/>
<path d="M173 253.001L234.878 227.754C235.254 227.601 235.5 227.235 235.5 226.828V179.25M173 253.001C175 232.5 180.099 173.033 191.5 162C207 147 235.5 131 235.5 131M173 253.001C157.617 252.324 144.126 251.309 131.641 249.742M235.5 131L213.5 126.77M235.5 131V179.25M126.5 110.039L105.773 106.053C105.594 106.019 105.437 106.023 105.267 106.087C101.727 107.4 58.973 123.436 54.5 133.5C43.3014 158.697 32.5383 211.327 31.1506 218.245C31.0596 218.698 31.2971 219.136 31.7182 219.328C40.7109 223.428 49.0791 227.041 57.0708 230.225M126.5 110.039C126.5 110.039 137 102.5 141.5 101C143.869 100.211 149.69 100.503 157.435 101.486M126.5 110.039C126.5 110.039 111.297 114.904 97 123.101M126.5 110.039L151.541 114.854M213.5 126.77C213.5 126.77 181.334 140.709 168 157.5C166.143 159.839 164.444 162.924 162.895 166.5M213.5 126.77C219.385 118.688 223.691 115.483 238 118.5M213.5 126.77L174.329 119.237M238 118.5C260 124.938 264 184.5 235.5 179.25M238 118.5C226.063 115.008 201.468 109.221 179.947 105.164M97 123.101C89.7246 127.272 82.6838 132.306 78 138C68.3824 149.693 62.32 197.7 61.5772 203.851C61.529 204.25 61.7272 204.629 62.0774 204.826C62.9254 205.303 63.7664 205.77 64.6011 206.227M97 123.101L94 162.324M162.895 166.5C154.216 186.549 150.26 222.066 149.601 228.49C149.543 229.047 149.044 229.45 148.488 229.387C145.643 229.065 142.899 228.742 140.246 228.413M162.895 166.5C154.913 154.181 143.607 153.05 138.853 152.069C138.056 151.904 138.028 151.034 138.759 150.675C144.651 147.785 163.904 137.306 174.329 119.237M143.5 219C143.5 219 142.298 222.76 140.246 228.413M116 171.5C118.369 174.903 119.152 177.083 119.5 181.5M110 179.5C114.94 176.171 118.03 174.902 124 173.5M168 229.501C168.791 232.565 168.602 234.019 168 236.5M155.5 244.5C157.3 243.83 158.84 243.782 162.895 244.5M219 208.5C218.922 210.52 218.91 211.549 219 213M226 202C225.876 203.758 225.859 204.743 226 206.5M226 215C226.253 217.431 226.194 218.318 226 219M44 202.5C43.3935 203.589 42.9423 205.071 42 209M47.5 213C46.8247 215.701 46.3733 216.548 45.5 217.5M94 162.324C103.054 153.783 113.831 146.668 126.5 142C135.711 138.607 144.977 127.222 151.541 114.854M94 162.324C80.6182 174.947 71.0004 190.682 64.6011 206.227M64.6011 206.227C61.2187 214.442 58.7355 222.605 57.0708 230.225M96.7681 220.024C99.2346 215.541 101.343 212.747 103 213C104.697 213.259 105.059 216.848 104.79 222.243M96.7681 220.024C99.3855 220.821 102.05 221.557 104.79 222.243M96.7681 220.024C93.8768 225.28 90.4931 232.858 86.7662 240.571M104.79 222.243C104.492 228.202 103.425 236.365 102.54 244.678M140.246 228.413C138.144 234.205 135.149 241.984 131.641 249.742M57.0708 230.225C52.1918 252.561 54.3442 270.247 61.5 271C70.4987 271.947 79.3178 255.988 86.7662 240.571M86.7662 240.571C92.0227 242.109 97.2515 243.471 102.54 244.678M102.54 244.678C100.694 262.014 99.6386 280 108 280C115.958 280 124.781 264.911 131.641 249.742M213.5 68.0002C213.5 68.0002 226 58.5002 230 68.0002C234 77.5002 216 84.0003 216 84.0003M216 92.0002V94.0002M157.435 101.486C160.44 92.9177 161.616 85.1075 160 80.5003C155.265 67.0004 156 82.0003 151.5 87.0003C146.861 92.1542 139.5 91.0003 136.5 84.0003C133.857 77.8325 139 69.4891 140 68.0002C143.694 62.5002 153.536 59.9301 163.5 63.0002C175.478 66.6908 179.934 77.5122 181 90.0003C181.462 95.4119 181.035 100.466 179.947 105.164M157.435 101.486C155.903 105.853 153.896 110.417 151.541 114.854M179.947 105.164C178.762 110.278 176.792 114.969 174.329 119.237M224.5 163.536V170.813C224.5 171.227 224.245 171.598 223.859 171.747L199.859 180.978C199.204 181.229 198.5 180.746 198.5 180.044V174.151C198.5 173.756 198.733 173.397 199.095 173.237L223.095 162.622C223.757 162.329 224.5 162.813 224.5 163.536Z" stroke="#000000" stroke-width="5" stroke-linecap="round"/>
</svg>